<svg width="370" height="242" viewBox="0 0 370 242" fill="none" xmlns="http://www.w3.org/2000/svg">
<g clip-path="url(#clip0)">
<path d="M364.721 97.8782C351.145 42.3543 304.233 2.27387 249.17 0.666283C220.059 -0.183603 189.426 9.85766 167.124 44.9957C127.255 107.809 169.574 151.215 199.077 171.84C213.331 181.825 226.174 193.831 237.235 207.51C257.164 232.105 295.502 262.668 341.161 214.78C374.254 180.071 373.765 134.863 364.721 97.8782Z" fill="#E9E4E0"/>
<path d="M50.9576 139.973C50.5918 139.41 50.2322 138.831 49.8887 138.254L50.4435 137.897C50.7824 138.467 51.1372 139.038 51.4981 139.594L50.9576 139.973Z" fill="#3F3D56"/>
<path d="M47.9217 134.618C47.3167 133.383 46.7543 132.108 46.2505 130.826L46.854 130.569C47.3514 131.833 47.9061 133.092 48.5029 134.31L47.9217 134.618ZM44.8873 126.904C44.4871 125.583 44.1353 124.228 43.8415 122.877L44.4778 122.727C44.7675 124.06 45.1145 125.397 45.5093 126.7L44.8873 126.904ZM43.1202 118.774C42.9353 117.405 42.8028 116.009 42.726 114.624L43.3774 114.585C43.4529 115.952 43.5838 117.329 43.7661 118.68L43.1202 118.774ZM43.3102 110.47L42.6582 110.454C42.6896 109.068 42.7762 107.668 42.9156 106.294L43.5644 106.365C43.4267 107.721 43.3412 109.102 43.3102 110.47ZM44.141 102.295L43.5002 102.169C43.7486 100.808 44.0548 99.442 44.4104 98.1079L45.0392 98.2891C44.6882 99.6053 44.3861 100.953 44.141 102.295ZM46.2536 94.3739L45.6418 94.139C46.103 92.8395 46.6226 91.5436 47.1862 90.2875L47.7774 90.5743C47.2213 91.8136 46.7086 93.0919 46.2536 94.3739ZM135.588 92.2769C135.078 91.0192 134.51 89.7672 133.901 88.5555L134.479 88.2411C135.097 89.4694 135.672 90.7385 136.189 92.0132L135.588 92.2769ZM49.5978 86.9192L49.0315 86.5827C49.6921 85.3809 50.4095 84.1921 51.1639 83.0493L51.7015 83.4333C50.9573 84.5608 50.2495 85.7337 49.5978 86.9192ZM131.925 84.9913C131.222 83.8374 130.465 82.6992 129.673 81.6085L130.194 81.1997C130.996 82.3053 131.764 83.4589 132.476 84.6284L131.925 84.9913ZM54.0736 80.139L53.5678 79.7104C54.4093 78.6366 55.3037 77.5862 56.2266 76.5879L56.6967 77.058C55.7862 78.043 54.9036 79.0795 54.0736 80.139ZM127.162 78.4287C126.287 77.4088 125.361 76.4143 124.409 75.4729L124.859 74.9813C125.823 75.9355 126.762 76.9434 127.649 77.9769L127.162 78.4287ZM59.5532 74.2108L59.1216 73.7023C60.1196 72.7861 61.1667 71.9015 62.2337 71.0731L62.6239 71.6167C61.5711 72.4341 60.538 73.3068 59.5532 74.2108ZM121.433 72.7614C120.41 71.9037 119.34 71.0797 118.253 70.3125L118.619 69.7511C119.721 70.5289 120.805 71.3638 121.842 72.233L121.433 72.7614ZM65.8879 69.2938L65.542 68.7187C66.6715 67.984 67.8433 67.2898 69.0251 66.6555L69.3242 67.2584C68.1583 67.8841 67.0022 68.569 65.8879 69.2938ZM114.89 68.1436C113.744 67.471 112.558 66.8408 111.366 66.2705L111.639 65.654C112.847 66.2323 114.049 66.8711 115.211 67.5527L114.89 68.1436ZM72.9096 65.525L72.6592 64.8986C73.8885 64.3676 75.1538 63.8838 76.42 63.4608L76.6194 64.1067C75.3703 64.524 74.1221 65.0012 72.9096 65.525ZM107.706 64.7067C106.471 64.2406 105.202 63.8225 103.934 63.4643L104.105 62.8097C105.39 63.1728 106.677 63.5964 107.929 64.069L107.706 64.7067ZM80.4322 63.0124L80.2851 62.3516C81.5804 62.0392 82.906 61.7793 84.2248 61.5789L84.3191 62.2502C83.018 62.448 81.7104 62.7044 80.4322 63.0124V63.0124ZM100.075 62.5516C98.7859 62.3045 97.4681 62.1101 96.1584 61.9739L96.2234 61.2988C97.5508 61.437 98.8866 61.6339 100.193 61.8845L100.075 62.5516ZM88.2531 61.8237L88.212 61.1466C89.5388 61.0595 90.8915 61.0285 92.2207 61.0535L92.209 61.7319C90.8962 61.7069 89.5625 61.7379 88.2531 61.8237Z" fill="#3F3D56"/>
<path d="M137.553 98.1143C137.378 97.4687 137.188 96.8179 136.988 96.1801L137.608 95.9697C137.811 96.6163 138.004 97.276 138.18 97.9304L137.553 98.1143Z" fill="#3F3D56"/>
<path d="M133.575 60.1225H132.923C132.923 59.4436 132.934 58.7548 132.957 58.0753L133.609 58.0989C133.587 58.7707 133.575 59.4514 133.575 60.1225Z" fill="#3F3D56"/>
<path d="M133.885 54.0194L133.236 53.9475C133.376 52.5812 133.565 51.2039 133.798 49.8537L134.44 49.9736C134.21 51.3079 134.023 52.6692 133.885 54.0194ZM135.274 45.9797L134.642 45.8121C134.968 44.4806 135.346 43.1457 135.763 41.8441L136.382 42.0588C135.969 43.3451 135.597 44.6642 135.274 45.9797ZM239.304 38.8222C238.816 37.5633 238.278 36.3072 237.705 35.0891L238.291 34.791C238.871 36.0236 239.415 37.2946 239.909 38.5688L239.304 38.8222ZM137.761 38.2276L137.159 37.9669C137.666 36.6992 138.224 35.4336 138.819 34.2053L139.401 34.5104C138.814 35.7243 138.262 36.9748 137.761 38.2276ZM235.852 31.4847C235.196 30.3124 234.491 29.1492 233.755 28.0275L234.294 27.6452C235.038 28.7803 235.752 29.9572 236.415 31.1435L235.852 31.4847ZM141.295 30.926L140.735 30.5782C141.411 29.4002 142.138 28.2312 142.895 27.1038L143.43 27.4923C142.681 28.6065 141.963 29.7618 141.295 30.926H141.295ZM231.426 24.7348C230.615 23.67 229.758 22.623 228.878 21.6229L229.359 21.1648C230.249 22.1768 231.117 23.236 231.938 24.3134L231.426 24.7348ZM145.795 24.2266L145.289 23.7993C146.121 22.732 147 21.6829 147.902 20.6812L148.378 21.1449C147.487 22.1351 146.618 23.1719 145.795 24.2266ZM226.122 18.7077C225.174 17.7739 224.182 16.8642 223.174 16.0038L223.587 15.4794C224.608 16.3498 225.611 17.2704 226.571 18.2151L226.122 18.7077ZM151.165 18.2628L150.722 17.7649C151.691 16.8323 152.704 15.9238 153.734 15.065L154.142 15.5944C153.124 16.4432 152.122 17.3409 151.165 18.2628V18.2628ZM220.048 13.5253C218.982 12.7412 217.876 11.9876 216.759 11.2853L217.097 10.705C218.226 11.4155 219.346 12.1781 220.424 12.9715L220.048 13.5253ZM157.294 13.1536L156.923 12.5955C158.009 11.8157 159.136 11.0669 160.273 10.3696L160.604 10.9539C159.48 11.6431 158.367 12.3831 157.294 13.1536V13.1536ZM213.325 9.29629C212.162 8.6785 210.964 8.09747 209.762 7.56895L210.017 6.94419C211.232 7.47884 212.445 8.06699 213.622 8.69208L213.325 9.29629ZM164.057 9.00695L163.767 8.39943C164.949 7.78925 166.167 7.216 167.387 6.69576L167.635 7.3235C166.428 7.83759 165.225 8.40404 164.057 9.00694V9.00695ZM206.089 6.11323C204.855 5.67631 203.589 5.28045 202.324 4.93677L202.489 4.28054C203.769 4.6282 205.051 5.02886 206.299 5.47092L206.089 6.11323ZM171.318 5.91249L171.115 5.26786C172.369 4.84054 173.654 4.45512 174.936 4.12235L175.094 4.78057C173.828 5.10934 172.557 5.49012 171.318 5.91248L171.318 5.91249ZM198.489 4.0465C197.206 3.79888 195.898 3.59665 194.602 3.44527L194.674 2.77116C195.986 2.92436 197.31 3.12891 198.608 3.37936L198.489 4.0465ZM178.939 3.93487L178.827 3.26639C180.126 3.03103 181.451 2.8417 182.766 2.70341L182.832 3.37852C181.533 3.51499 180.223 3.70215 178.939 3.93486L178.939 3.93487ZM190.683 3.13422C189.377 3.07906 188.049 3.07177 186.753 3.11202L186.733 2.43394C188.045 2.3932 189.388 2.40032 190.71 2.45647L190.683 3.13422Z" fill="#3F3D56"/>
<path d="M241.211 44.6436C241.037 43.998 240.848 43.3462 240.651 42.7061L241.272 42.4994C241.472 43.147 241.663 43.8065 241.839 44.4598L241.211 44.6436Z" fill="#3F3D56"/>
<path d="M50.5758 148.393C56.5763 148.393 61.4406 148.014 61.4406 147.546C61.4406 147.078 56.5763 146.698 50.5758 146.698C44.5753 146.698 39.7109 147.078 39.7109 147.546C39.7109 148.014 44.5753 148.393 50.5758 148.393Z" fill="#6C63FF"/>
<path d="M137.223 107.431C143.224 107.431 148.088 107.052 148.088 106.584C148.088 106.116 143.224 105.736 137.223 105.736C131.223 105.736 126.358 106.116 126.358 106.584C126.358 107.052 131.223 107.431 137.223 107.431Z" fill="#6C63FF"/>
<path d="M244.242 64.7743C250.242 64.7743 255.107 64.3949 255.107 63.9268C255.107 63.4588 250.242 63.0793 244.242 63.0793C238.241 63.0793 233.377 63.4588 233.377 63.9268C233.377 64.3949 238.241 64.7743 244.242 64.7743Z" fill="#6C63FF"/>
<path d="M239.937 61.1445L207.267 95.1231L207.728 95.6028L240.398 61.6242L239.937 61.1445Z" fill="#3F3D56"/>
<path d="M197.795 99.4647H142.928V100.143H197.795V99.4647Z" fill="#3F3D56"/>
<path d="M132.913 104.09L102.226 136.006L102.687 136.486L133.375 104.569L132.913 104.09Z" fill="#3F3D56"/>
<path d="M92.9492 140.427H56.2803V141.105H92.9492V140.427Z" fill="#3F3D56"/>
<path d="M46.3123 144.721L9.87402 182.618L10.3352 183.098L46.7735 145.201L46.3123 144.721Z" fill="#3F3D56"/>
<path d="M50.5763 147.038C49.3837 147.038 48.2177 146.67 47.2261 145.981C46.2344 145.292 45.4614 144.312 45.005 143.166C44.5485 142.02 44.4291 140.759 44.6618 139.543C44.8944 138.326 45.4687 137.208 46.3121 136.331C47.1554 135.454 48.2299 134.857 49.3997 134.615C50.5694 134.373 51.7819 134.497 52.8838 134.972C53.9857 135.446 54.9275 136.25 55.5902 137.282C56.2528 138.313 56.6065 139.526 56.6065 140.766C56.6047 142.429 55.9688 144.023 54.8383 145.199C53.7078 146.374 52.1751 147.036 50.5763 147.038ZM50.5763 135.173C49.5127 135.173 48.4729 135.501 47.5885 136.115C46.704 136.73 46.0147 137.603 45.6076 138.625C45.2006 139.648 45.094 140.772 45.3015 141.857C45.509 142.942 46.0212 143.939 46.7733 144.721C47.5254 145.503 48.4837 146.036 49.5269 146.252C50.5702 146.468 51.6515 146.357 52.6342 145.934C53.6169 145.51 54.4568 144.793 55.0478 143.874C55.6387 142.954 55.9542 141.872 55.9542 140.766C55.9525 139.283 55.3854 137.861 54.3772 136.813C53.3691 135.764 52.0021 135.174 50.5763 135.173Z" fill="#3F3D56"/>
<path d="M98.6533 147.038C97.4606 147.038 96.2948 146.67 95.3031 145.981C94.3114 145.292 93.5385 144.312 93.0821 143.166C92.6257 142.02 92.5062 140.759 92.7389 139.542C92.9716 138.326 93.5459 137.208 94.3893 136.331C95.2326 135.454 96.3071 134.857 97.4769 134.615C98.6466 134.373 99.8591 134.497 100.961 134.972C102.063 135.446 103.005 136.25 103.667 137.282C104.33 138.313 104.684 139.526 104.684 140.766C104.682 142.429 104.046 144.023 102.915 145.199C101.785 146.375 100.252 147.036 98.6533 147.038ZM98.6533 135.173C97.5897 135.173 96.5499 135.501 95.6655 136.115C94.7811 136.73 94.0918 137.604 93.6847 138.626C93.2777 139.648 93.1712 140.772 93.3787 141.857C93.5862 142.942 94.0984 143.939 94.8505 144.721C95.6026 145.503 96.5609 146.036 97.6041 146.252C98.6474 146.468 99.7287 146.357 100.711 145.934C101.694 145.51 102.534 144.793 103.125 143.874C103.716 142.954 104.031 141.872 104.031 140.766C104.03 139.283 103.463 137.861 102.454 136.813C101.446 135.764 100.079 135.174 98.6533 135.173Z" fill="#3F3D56"/>
<path d="M137.223 106.076C136.031 106.076 134.865 105.708 133.873 105.019C132.882 104.329 132.109 103.35 131.652 102.204C131.196 101.058 131.077 99.797 131.309 98.5804C131.542 97.3638 132.116 96.2464 132.96 95.3693C133.803 94.4922 134.877 93.8948 136.047 93.6528C137.217 93.4109 138.429 93.535 139.531 94.0097C140.633 94.4844 141.575 95.2882 142.237 96.3196C142.9 97.3509 143.254 98.5635 143.254 99.8039C143.252 101.467 142.616 103.061 141.486 104.237C140.355 105.412 138.822 106.074 137.223 106.076ZM137.223 94.2108C136.16 94.2108 135.12 94.5388 134.236 95.1534C133.351 95.768 132.662 96.6416 132.255 97.6636C131.848 98.6857 131.741 99.8103 131.949 100.895C132.157 101.98 132.669 102.977 133.421 103.759C134.173 104.541 135.131 105.074 136.174 105.29C137.218 105.506 138.299 105.395 139.282 104.971C140.264 104.548 141.104 103.831 141.695 102.911C142.286 101.992 142.601 100.91 142.601 99.8039C142.6 98.321 142.033 96.8993 141.024 95.8508C140.016 94.8022 138.649 94.2124 137.223 94.2108V94.2108Z" fill="#3F3D56"/>
<path d="M203.499 106.076C202.306 106.076 201.14 105.708 200.149 105.019C199.157 104.329 198.384 103.35 197.928 102.204C197.471 101.058 197.352 99.797 197.585 98.5804C197.817 97.3638 198.392 96.2464 199.235 95.3693C200.078 94.4922 201.153 93.8948 202.322 93.6528C203.492 93.4109 204.705 93.535 205.807 94.0097C206.908 94.4844 207.85 95.2882 208.513 96.3196C209.175 97.3509 209.529 98.5635 209.529 99.8039C209.527 101.467 208.891 103.061 207.761 104.237C206.63 105.412 205.098 106.074 203.499 106.076ZM203.499 94.2108C202.435 94.2108 201.395 94.5388 200.511 95.1534C199.627 95.768 198.937 96.6416 198.53 97.6636C198.123 98.6857 198.017 99.8103 198.224 100.895C198.432 101.98 198.944 102.977 199.696 103.759C200.448 104.541 201.407 105.074 202.45 105.29C203.493 105.506 204.574 105.395 205.557 104.971C206.54 104.548 207.38 103.831 207.971 102.911C208.561 101.992 208.877 100.91 208.877 99.8039C208.875 98.321 208.308 96.8993 207.3 95.8507C206.292 94.8021 204.925 94.2124 203.499 94.2108V94.2108Z" fill="#3F3D56"/>
<path d="M244.242 63.4186C243.049 63.4185 241.884 63.0507 240.892 62.3616C239.9 61.6724 239.127 60.6929 238.671 59.5469C238.215 58.401 238.095 57.1399 238.328 55.9234C238.56 54.7068 239.135 53.5893 239.978 52.7122C240.821 51.8351 241.896 51.2378 243.066 50.9958C244.235 50.7538 245.448 50.878 246.55 51.3527C247.652 51.8273 248.593 52.6312 249.256 53.6625C249.919 54.6939 250.272 55.9064 250.272 57.1468C250.271 58.8096 249.635 60.4038 248.504 61.5795C247.374 62.7553 245.841 63.4167 244.242 63.4186ZM244.242 51.5537C243.178 51.5537 242.139 51.8818 241.254 52.4964C240.37 53.111 239.681 53.9845 239.274 55.0066C238.867 56.0286 238.76 57.1532 238.968 58.2382C239.175 59.3232 239.687 60.3198 240.439 61.102C241.192 61.8842 242.15 62.4169 243.193 62.6327C244.236 62.8485 245.318 62.7377 246.3 62.3144C247.283 61.891 248.123 61.1741 248.714 60.2543C249.305 59.3345 249.62 58.2531 249.62 57.1468C249.618 55.6639 249.051 54.2423 248.043 53.1937C247.035 52.1452 245.668 51.5554 244.242 51.5537V51.5537Z" fill="#3F3D56"/>
<path d="M6.03044 193.367C4.83775 193.367 3.67185 193 2.68015 192.31C1.68846 191.621 0.915517 190.642 0.459076 189.496C0.00263428 188.35 -0.116808 187.089 0.115853 185.872C0.348515 184.656 0.92283 183.538 1.76617 182.661C2.60952 181.784 3.68401 181.186 4.85377 180.944C6.02354 180.702 7.23603 180.827 8.33793 181.301C9.43983 181.776 10.3816 182.58 11.0443 183.611C11.7069 184.643 12.0606 185.855 12.0605 187.096C12.0587 188.758 11.4229 190.353 10.2924 191.528C9.16192 192.704 7.62918 193.365 6.03044 193.367ZM6.03044 181.502C4.96677 181.502 3.92698 181.83 3.04255 182.445C2.15813 183.059 1.46879 183.933 1.06172 184.955C0.654652 185.977 0.548128 187.102 0.75562 188.187C0.963112 189.272 1.4753 190.268 2.22742 191.051C2.97954 191.833 3.9378 192.366 4.98103 192.581C6.02426 192.797 7.1056 192.687 8.0883 192.263C9.07101 191.84 9.91094 191.123 10.5019 190.203C11.0928 189.283 11.4082 188.202 11.4082 187.096C11.4066 185.613 10.8395 184.191 9.83134 183.142C8.82316 182.094 7.45624 181.504 6.03044 181.502Z" fill="#3F3D56"/>
<path d="M50.5758 103.759C49.149 103.759 47.7362 104.051 46.418 104.619C45.0998 105.187 43.9021 106.019 42.8932 107.069C41.8843 108.118 41.084 109.364 40.538 110.735C39.992 112.105 39.7109 113.575 39.7109 115.059C39.7109 121.3 50.5758 141.896 50.5758 141.896C50.5758 141.896 61.4406 121.3 61.4406 115.059C61.4406 113.575 61.1596 112.105 60.6136 110.735C60.0676 109.364 59.2673 108.118 58.2584 107.069C57.2495 106.019 56.0518 105.187 54.7336 104.619C53.4154 104.051 52.0026 103.759 50.5758 103.759ZM50.5758 120.991C49.4476 120.991 48.3448 120.643 47.4068 119.991C46.4688 119.34 45.7377 118.413 45.3059 117.329C44.8742 116.245 44.7613 115.052 44.9814 113.901C45.2014 112.751 45.7447 111.694 46.5424 110.864C47.3402 110.034 48.3565 109.469 49.463 109.24C50.5695 109.011 51.7164 109.129 52.7586 109.578C53.8009 110.027 54.6918 110.787 55.3185 111.763C55.9453 112.739 56.2798 113.885 56.2798 115.059C56.2798 116.632 55.6789 118.141 54.6092 119.254C53.5394 120.366 52.0886 120.991 50.5758 120.991Z" fill="#F9AE76"/>
<path d="M137.223 61.3843C134.342 61.3843 131.578 62.5749 129.541 64.694C127.503 66.8131 126.358 69.6873 126.358 72.6842C126.358 78.925 137.223 99.5214 137.223 99.5214C137.223 99.5214 148.088 78.925 148.088 72.6842C148.088 71.2003 147.807 69.7309 147.261 68.3599C146.715 66.989 145.915 65.7433 144.906 64.694C143.897 63.6447 142.699 62.8124 141.381 62.2445C140.063 61.6766 138.65 61.3843 137.223 61.3843ZM137.223 78.6167C136.095 78.6167 134.992 78.2687 134.054 77.6169C133.116 76.965 132.385 76.0385 131.953 74.9545C131.522 73.8705 131.409 72.6776 131.629 71.5269C131.849 70.3761 132.392 69.319 133.19 68.4894C133.988 67.6597 135.004 67.0947 136.11 66.8658C137.217 66.6369 138.364 66.7544 139.406 67.2034C140.448 67.6524 141.339 68.4128 141.966 69.3883C142.593 70.3639 142.927 71.5109 142.927 72.6842C142.927 74.2576 142.326 75.7665 141.257 76.8791C140.187 77.9916 138.736 78.6167 137.223 78.6167Z" fill="#F9AE76"/>
<path d="M350.517 240.554H202.597V241.383H350.517V240.554Z" fill="#2F2E41"/>
<path d="M324.66 25.1869C322.361 32.2681 318.835 38.7202 311.648 38.7202C304.462 38.7202 299.041 32.6493 298.636 25.1869C298.118 15.6515 304.296 11.6141 311.648 11.6536C320.334 11.7003 327.39 16.7832 324.66 25.1869Z" fill="#2F2E41"/>
<path d="M324.318 24.1185H298.636V57.9517H324.318V24.1185Z" fill="#2F2E41"/>
<path d="M325.073 49.3244H327.257C327.257 49.3244 332.597 56.3925 330.17 65.9849C327.742 75.5773 329.684 77.3444 329.684 77.3444C329.684 77.3444 332.844 87.7322 329.446 103.383C326.048 119.034 332.597 123.287 332.597 123.287L326.529 110.665L323.131 77.3444L325.073 49.3244Z" fill="#575A89"/>
<path opacity="0.1" d="M325.073 50.1548H327.257C327.257 50.1548 332.597 57.2229 330.17 66.8153C327.742 76.4077 329.684 78.1747 329.684 78.1747C329.684 78.1747 332.844 88.5625 329.446 104.213C326.048 119.864 332.597 124.117 332.597 124.117L326.529 111.496L323.131 78.1747L325.073 50.1548Z" fill="black"/>
<path d="M317.426 37.0814C317.426 37.0814 315.485 45.1593 316.456 45.1593C317.426 45.1593 320.824 49.4506 320.824 49.4506L323.009 57.7809L321.31 63.8392L315.485 62.5771L308.203 54.2468L306.019 51.9749L304.077 44.6544C304.077 44.6544 306.504 41.6252 304.805 39.1009C303.106 36.5765 317.426 37.0814 317.426 37.0814Z" fill="#FBBEBE"/>
<path opacity="0.1" d="M317.426 37.0814C317.426 37.0814 315.485 45.1593 316.456 45.1593C317.426 45.1593 320.824 49.4506 320.824 49.4506L323.009 57.7809L321.31 63.8392L315.485 62.5771L308.203 54.2468L306.019 51.9749L304.077 44.6544C304.077 44.6544 306.504 41.6252 304.805 39.1009C303.106 36.5765 317.426 37.0814 317.426 37.0814Z" fill="black"/>
<path d="M258.69 59.5479L253.35 50.4603C253.35 50.4603 247.586 37.1964 243.46 41.9926C239.334 46.7889 249.709 56.5187 249.709 56.5187L255.049 63.8393L258.69 59.5479Z" fill="#FBBEBE"/>
<path d="M329.562 138.559L325.679 168.094C325.679 168.094 326.164 170.366 321.31 178.696C316.456 187.026 303.349 205.201 303.349 205.201L299.466 197.628C299.466 197.628 304.077 173.647 312.087 168.599L311.116 132.248L329.562 138.559Z" fill="#FBBEBE"/>
<path opacity="0.1" d="M329.562 138.559L325.679 168.094C325.679 168.094 326.164 170.366 321.31 178.696C316.456 187.026 303.349 205.201 303.349 205.201L299.466 197.628C299.466 197.628 304.077 173.647 312.087 168.599L311.116 132.248L329.562 138.559Z" fill="black"/>
<path d="M299.466 194.599L304.806 205.201C304.806 205.201 300.437 218.075 302.136 219.338C303.835 220.6 306.02 231.959 301.408 230.697C296.796 229.435 293.156 224.386 293.156 223.629C293.156 222.872 295.826 212.269 294.369 209.745C292.913 207.221 291.942 206.463 291.942 206.463L288.301 212.774L287.088 212.017L293.156 201.415C293.156 201.415 293.884 199.395 296.796 198.133L299.466 194.599Z" fill="#2F2E41"/>
<path opacity="0.1" d="M299.466 194.599L304.806 205.201C304.806 205.201 300.437 218.075 302.136 219.338C303.835 220.6 306.02 231.959 301.408 230.697C296.796 229.435 293.156 224.386 293.156 223.629C293.156 222.872 295.826 212.269 294.369 209.745C292.913 207.221 291.942 206.463 291.942 206.463L288.301 212.774L287.088 212.017L293.156 201.415C293.156 201.415 293.884 199.395 296.796 198.133L299.466 194.599Z" fill="black"/>
<path d="M311.172 134.369C311.172 134.369 313.058 162.288 308.931 169.608V205.959L303.349 206.716C303.349 206.716 292.075 187.471 296.202 168.539C300.328 149.606 291.941 132.248 291.941 132.248L311.172 134.369Z" fill="#FBBEBE"/>
<path d="M309.781 43.266C315.411 43.266 319.975 38.5193 319.975 32.6639C319.975 26.8085 315.411 22.0617 309.781 22.0617C304.151 22.0617 299.587 26.8085 299.587 32.6639C299.587 38.5193 304.151 43.266 309.781 43.266Z" fill="#FBBEBE"/>
<path d="M320.097 60.5576L309.903 47.1787L304.078 43.1398L301.651 46.4214L294.855 48.4409C294.855 48.4409 290.486 49.4506 285.874 55.0041C281.263 60.5576 273.01 63.8393 273.01 63.8393L266.214 62.5771C266.214 62.5771 258.205 58.7906 258.205 57.7809C258.205 56.7711 251.166 64.5966 252.865 67.6258C254.564 70.6549 258.205 74.4414 260.147 76.4609C262.088 78.4803 262.816 84.2863 274.709 82.5193C286.602 80.7522 290.971 74.6939 290.971 74.6939C290.971 74.6939 293.156 86.3057 299.466 88.5776C305.777 90.8495 326.407 92.3641 326.407 92.3641L330.776 77.2182C330.776 77.2182 335.631 70.6549 329.077 61.0625C329.077 61.0625 328.952 55.6977 328.247 52.1278C327.973 50.7393 327.611 49.6223 327.136 49.1982C325.437 47.6836 316.456 45.1593 316.456 45.1593C316.456 45.1593 317.913 50.2079 318.641 50.4603C319.369 50.7128 321.068 59.2955 320.097 60.5576Z" fill="#575A89"/>
<path d="M287.452 135.909C299.675 135.025 306.791 137.108 309.966 138.696C310.556 138.973 311.112 139.324 311.621 139.741C311.854 139.945 311.966 140.104 311.966 140.2C311.966 140.957 328.713 142.472 334.781 140.957C340.849 139.443 330.655 106.879 327.985 104.102C325.315 101.325 326.755 91.1625 326.755 91.1625C326.755 91.1625 321.432 89.966 319.976 90.4709C318.519 90.9758 310.995 89.7136 308.325 88.199C305.656 86.6844 302.258 87.6941 300.073 87.1893C299.097 86.9646 298.605 87.3432 298.36 87.833C297.978 88.5676 297.402 89.1729 296.699 89.5773C291.547 92.6645 287.411 114.01 284.297 125.811C280.899 138.685 287.452 135.909 287.452 135.909Z" fill="#2F2E41"/>
<path d="M309.903 203.687L310.874 209.24C310.874 209.24 315.971 216.813 314.515 223.124C314.515 223.124 315.728 231.454 320.097 233.726C324.466 235.998 320.825 241.299 316.699 241.047C312.573 240.794 308.689 241.299 308.204 240.037C307.719 238.775 304.806 226.406 304.806 226.406L304.009 240.88L301.582 241.133L302.379 224.386C302.379 224.386 300.437 220.6 303.107 214.289L302.433 204.602C302.433 204.602 309.175 206.211 309.903 203.687Z" fill="#2F2E41"/>
<path opacity="0.1" d="M309.966 138.696C310.556 138.973 311.112 139.324 311.621 139.741C311.75 137.355 312.492 122.929 311.602 123.161L309.966 138.696Z" fill="black"/>
<path d="M305.561 18.0641C305.561 18.0641 305.448 17.4105 301.033 19.1325C296.617 20.8546 293.971 33.5625 296.178 41.0246C297.068 44.0318 296.344 46.2001 295.163 47.7171C290.73 53.41 292.475 61.9606 298.932 64.8881C299.114 64.9707 299.3 65.0524 299.49 65.1332L302.249 66.8552C302.249 66.8552 298.731 62.0411 300.492 55.883C302.021 50.636 302.21 45.0655 301.04 39.7196C300.838 38.8178 300.608 37.8882 300.348 36.9395C298.14 28.9033 299.214 29.8314 306.941 21.7952C306.941 21.7952 311.356 25.2393 315.219 26.9613C319.083 28.6834 322.394 30.4054 319.635 36.1455C316.875 41.8856 310.252 47.0518 314.667 54.5139C319.083 61.9761 319.635 59.106 319.083 61.9761L318.531 64.8461L321.842 61.4021L319.635 65.9942C319.635 65.9942 326.81 65.9942 329.017 60.254L330.121 61.4021C330.121 61.4021 334.536 53.3659 326.258 45.9037C326.258 45.9037 323.498 44.1817 327.361 38.4416C331.225 32.7014 328.258 20.3602 323.291 18.0641C318.323 15.7681 305.561 18.0641 305.561 18.0641Z" fill="#2F2E41"/>
<path d="M311.648 14.5027C314.485 14.5027 316.785 12.111 316.785 9.16063C316.785 6.21028 314.485 3.81854 311.648 3.81854C308.811 3.81854 306.512 6.21028 306.512 9.16063C306.512 12.111 308.811 14.5027 311.648 14.5027Z" fill="#2F2E41"/>
<path d="M305.484 6.31152C305.484 4.98724 305.957 3.7102 306.812 2.72811C307.666 1.74602 308.84 1.12888 310.107 0.996406C309.938 0.97895 309.767 0.969429 309.593 0.969429C308.231 0.969429 306.925 1.53225 305.961 2.53409C304.998 3.53593 304.457 4.89471 304.457 6.31152C304.457 7.72833 304.998 9.08711 305.961 10.0889C306.925 11.0908 308.231 11.6536 309.593 11.6536C309.767 11.6536 309.938 11.6441 310.107 11.6266C308.84 11.4942 307.666 10.877 306.812 9.89492C305.957 8.91283 305.484 7.63579 305.484 6.31152Z" fill="#2F2E41"/>
<path d="M244.242 20.7048C242.815 20.7048 241.402 20.997 240.084 21.5649C238.766 22.1328 237.568 22.9651 236.559 24.0144C235.55 25.0637 234.75 26.3094 234.204 27.6804C233.658 29.0513 233.377 30.5207 233.377 32.0046C233.377 38.2454 244.242 58.8419 244.242 58.8419C244.242 58.8419 255.107 38.2454 255.107 32.0046C255.107 30.5207 254.826 29.0513 254.28 27.6804C253.734 26.3094 252.933 25.0637 251.924 24.0144C250.916 22.9651 249.718 22.1328 248.4 21.5649C247.081 20.997 245.669 20.7048 244.242 20.7048ZM244.242 37.9371C243.114 37.9371 242.011 37.5892 241.073 36.9373C240.135 36.2854 239.404 35.3589 238.972 34.2749C238.54 33.1909 238.427 31.9981 238.647 30.8473C238.867 29.6965 239.411 28.6395 240.208 27.8098C241.006 26.9801 242.023 26.4151 243.129 26.1862C244.235 25.9573 245.382 26.0748 246.425 26.5238C247.467 26.9728 248.358 27.7332 248.985 28.7088C249.611 29.6844 249.946 30.8313 249.946 32.0047C249.946 33.578 249.345 35.087 248.275 36.1995C247.205 37.3121 245.755 37.9371 244.242 37.9371Z" fill="#F9AE76"/>
<path d="M156.656 230.957C159.903 230.957 162.535 228.219 162.535 224.843C162.535 221.466 159.903 218.728 156.656 218.728C153.409 218.728 150.777 221.466 150.777 224.843C150.777 228.219 153.409 230.957 156.656 230.957Z" fill="#F1F1F1"/>
<path d="M193.233 205.094C196.48 205.094 199.112 202.356 199.112 198.98C199.112 195.603 196.48 192.865 193.233 192.865C189.987 192.865 187.354 195.603 187.354 198.98C187.354 202.356 189.987 205.094 193.233 205.094Z" fill="#F1F1F1"/>
<path d="M148 181.012C151.247 181.012 153.879 178.275 153.879 174.898C153.879 171.521 151.247 168.783 148 168.783C144.753 168.783 142.121 171.521 142.121 174.898C142.121 178.275 144.753 181.012 148 181.012Z" fill="#F1F1F1"/>
</g>
<defs>
<clipPath id="clip0">
<rect width="370" height="240.765" fill="white" transform="translate(0 0.617355)"/>
</clipPath>
</defs>
</svg>
