<svg width="1087" height="609" viewBox="0 0 1087 609" fill="none" xmlns="http://www.w3.org/2000/svg">
<path d="M806.119 529.54C942.047 529.54 1052.24 430.474 1052.24 308.27C1052.24 186.066 942.047 87 806.119 87C670.191 87 560 186.066 560 308.27C560 430.474 670.191 529.54 806.119 529.54Z" fill="#E9E4E0"/>
<path d="M133.53 169.002C185.44 169.002 227.521 131.169 227.521 84.5009C227.521 37.8323 185.44 0 133.53 0C81.621 0 39.54 37.8323 39.54 84.5009C39.54 131.169 81.621 169.002 133.53 169.002Z" fill="#F9AE76"/>
<path d="M302.132 453.865C438.06 453.865 548.251 354.799 548.251 232.595C548.251 110.39 438.06 11.3244 302.132 11.3244C166.204 11.3244 56.0127 110.39 56.0127 232.595C56.0127 354.799 166.204 453.865 302.132 453.865Z" fill="#E9E4E0"/>
<path d="M290.504 466.061C439.81 466.061 560.847 460.211 560.847 452.994C560.847 445.777 439.81 439.927 290.504 439.927C141.197 439.927 20.1602 445.777 20.1602 452.994C20.1602 460.211 141.197 466.061 290.504 466.061Z" fill="#3F3D56"/>
<path opacity="0.1" d="M236.241 462.457C348.087 462.457 438.756 458.422 438.756 453.445C438.756 448.468 348.087 444.433 236.241 444.433C124.395 444.433 33.7256 448.468 33.7256 453.445C33.7256 458.422 124.395 462.457 236.241 462.457Z" fill="black"/>
<path d="M816.656 558.402C965.963 558.402 1087 551.967 1087 544.029C1087 536.09 965.963 529.655 816.656 529.655C667.349 529.655 546.312 536.09 546.312 544.029C546.312 551.967 667.349 558.402 816.656 558.402Z" fill="#3F3D56"/>
<path opacity="0.1" d="M762.394 554.437C874.241 554.437 964.91 549.999 964.91 544.524C964.91 539.049 874.241 534.611 762.394 534.611C650.548 534.611 559.879 539.049 559.879 544.524C559.879 549.999 650.548 554.437 762.394 554.437Z" fill="black"/>
<path d="M388.465 518.33C483.745 518.33 560.984 514.82 560.984 510.49C560.984 506.16 483.745 502.649 388.465 502.649C293.185 502.649 215.945 506.16 215.945 510.49C215.945 514.82 293.185 518.33 388.465 518.33Z" fill="#3F3D56"/>
<path d="M83.2377 488.138C129.209 488.138 166.475 486.445 166.475 484.355C166.475 482.266 129.209 480.573 83.2377 480.573C37.2668 480.573 0 482.266 0 484.355C0 486.445 37.2668 488.138 83.2377 488.138Z" fill="#3F3D56"/>
<path d="M923.361 609C1008.92 609 1078.28 605.848 1078.28 601.96C1078.28 598.071 1008.92 594.919 923.361 594.919C837.802 594.919 768.442 598.071 768.442 601.96C768.442 605.848 837.802 609 923.361 609Z" fill="#3F3D56"/>
<path d="M906.771 377.205H596.699V542.722H906.771V377.205Z" fill="#51686D"/>
<path d="M696.504 524.428C735.035 524.428 766.27 496.346 766.27 461.706C766.27 427.065 735.035 398.983 696.504 398.983C657.974 398.983 626.738 427.065 626.738 461.706C626.738 496.346 657.974 524.428 696.504 524.428Z" fill="#6C63FF"/>
<path d="M810.842 403.339H787.587V424.247H810.842V403.339Z" fill="#6C63FF"/>
<path opacity="0.5" d="M839.912 403.339H816.656V424.247H839.912V403.339Z" fill="#6C63FF"/>
<path opacity="0.2" d="M868.981 403.339H845.726V424.247H868.981V403.339Z" fill="#6C63FF"/>
<path d="M810.842 429.473H787.587V450.381H810.842V429.473Z" fill="#2F2E41"/>
<path opacity="0.5" d="M839.912 429.473H816.656V450.381H839.912V429.473Z" fill="#2F2E41"/>
<path opacity="0.2" d="M868.981 429.473H845.726V450.381H868.981V429.473Z" fill="#2F2E41"/>
<path d="M810.842 455.608H787.587V476.515H810.842V455.608Z" fill="#F9AE76"/>
<path opacity="0.5" d="M839.912 455.608H816.656V476.515H839.912V455.608Z" fill="#FF6584"/>
<path opacity="0.2" d="M868.981 455.608H845.726V476.515H868.981V455.608Z" fill="#FF6584"/>
<path opacity="0.5" d="M696.504 398.983V524.428C735.035 524.428 768.208 496.346 768.208 461.706C768.208 427.065 735.035 398.983 696.504 398.983Z" fill="#3F3D56"/>
<path d="M973.145 388.965C973.145 388.965 1013.84 405.517 999.308 424.682C984.773 443.847 941.169 480.435 940.2 488.275C939.231 496.116 933.418 503.085 933.418 503.085C933.418 503.085 914.038 484.791 915.976 483.049C917.914 481.306 937.293 464.755 938.262 460.399C939.231 456.043 968.301 422.069 968.301 422.069L942.138 401.161L973.145 388.965Z" fill="#FFB9B9"/>
<path opacity="0.1" d="M973.145 388.965C973.145 388.965 1013.84 405.517 999.308 424.682C984.773 443.847 941.169 480.435 940.2 488.275C939.231 496.116 933.418 503.085 933.418 503.085C933.418 503.085 914.038 484.791 915.976 483.049C917.914 481.306 937.293 464.755 938.262 460.399C939.231 456.043 968.301 422.069 968.301 422.069L942.138 401.161L973.145 388.965Z" fill="black"/>
<path d="M921.79 425.553C921.79 425.553 949.89 436.007 947.952 452.559C946.014 469.11 981.866 516.152 981.866 516.152C981.866 516.152 985.742 527.477 984.773 530.962C983.804 534.446 1009.97 533.575 1009.97 533.575V525.735C1009.97 525.735 989.618 494.374 987.68 485.662C985.742 476.951 974.115 442.976 974.115 442.976C974.115 442.976 970.239 412.486 950.859 412.486C945.218 412.486 939.655 413.667 934.609 415.935C929.564 418.203 925.175 421.496 921.79 425.553Z" fill="#FFB9B9"/>
<path d="M923.243 346.715C923.243 346.715 981.382 389.401 979.444 392.885C977.506 396.37 949.406 409.437 944.561 410.308C939.716 411.179 905.436 346.715 905.436 346.715H923.243Z" fill="#2F2E41"/>
<path opacity="0.1" d="M923.243 346.715C923.243 346.715 981.382 389.401 979.444 392.885C977.506 396.37 949.406 409.437 944.561 410.308C939.716 411.179 905.436 346.715 905.436 346.715H923.243Z" fill="black"/>
<path d="M860.26 355.426C860.26 355.426 854.446 378.947 869.95 388.53C885.454 398.112 911.616 435.571 914.523 435.571C917.43 435.571 959.095 415.535 957.157 412.05C955.22 408.566 933.902 378.076 933.902 378.076L927.119 345.844C927.119 345.844 868.012 344.101 860.26 355.426Z" fill="#2F2E41"/>
<path d="M923.243 278.766L931.964 329.292L947.467 365.009C947.467 365.009 970.723 386.787 957.157 388.53C943.592 390.272 935.84 365.009 935.84 365.009L923.243 344.101V278.766Z" fill="#FFB9B9"/>
<path opacity="0.1" d="M923.243 278.766L931.964 329.292L947.467 365.009C947.467 365.009 970.723 386.787 957.157 388.53C943.592 390.272 935.84 365.009 935.84 365.009L923.243 344.101V278.766Z" fill="black"/>
<path d="M890.783 222.577C890.783 222.577 890.783 240.871 884 242.613C877.218 244.356 911.132 267.876 911.132 267.876C911.132 267.876 907.256 237.386 920.821 229.546L890.783 222.577Z" fill="#FFB9B9"/>
<path opacity="0.1" d="M890.783 222.577C890.783 222.577 890.783 240.871 884 242.613C877.218 244.356 911.132 267.876 911.132 267.876C911.132 267.876 907.256 237.386 920.821 229.546L890.783 222.577Z" fill="black"/>
<path d="M906.286 237.386C918.595 237.386 928.573 228.416 928.573 217.35C928.573 206.284 918.595 197.314 906.286 197.314C893.978 197.314 884 206.284 884 217.35C884 228.416 893.978 237.386 906.286 237.386Z" fill="#FFB9B9"/>
<path d="M907.256 259.165C907.256 259.165 886.907 236.515 884 237.386C881.093 238.258 859.776 257.423 857.838 263.521C855.9 269.619 852.024 313.176 854.931 321.887C857.838 330.599 857.838 353.248 856.869 354.991C855.9 356.733 850.086 361.089 855.9 361.089C861.714 361.089 882.062 348.021 895.628 350.635C909.194 353.248 927.604 349.764 928.573 348.021C929.542 346.279 927.604 300.98 928.573 297.495C929.542 294.011 926.635 276.588 925.666 273.103C924.697 269.619 924.697 255.68 915.007 252.196L910.876 251.829L910.644 260.446L907.256 259.165Z" fill="#51686D"/>
<path d="M864.621 304.464C864.621 304.464 866.559 331.47 881.094 342.795C895.628 354.12 926.635 373.285 928.573 376.769C930.511 380.254 948.922 398.548 952.798 390.708C953.922 388.263 954.194 385.569 953.575 382.983C953.012 380.413 951.87 377.973 950.22 375.814C948.57 373.655 946.446 371.822 943.979 370.428L935.356 365.444L892.721 325.372L890.783 304.464H864.621Z" fill="#FFB9B9"/>
<path d="M920.337 480C920.337 480 909.194 477.822 905.318 483.92C901.442 490.018 909.194 506.569 909.194 506.569C909.194 506.569 931.48 548.384 935.356 543.157C939.232 537.931 932.449 518.765 932.449 518.765C932.449 518.765 942.139 499.6 938.263 498.729C934.387 497.858 920.337 490.453 920.337 480Z" fill="#2F2E41"/>
<path d="M988.65 530.09C988.65 530.09 982.836 527.477 981.867 530.09C980.898 532.704 975.084 545.771 981.867 547.513C988.65 549.255 1055.51 550.998 1053.57 547.513C1051.63 544.029 1040.97 539.673 1034.19 537.931C1027.41 536.188 1009.97 523.121 1009.97 523.121C1009.97 523.121 1000.28 534.446 988.65 530.09Z" fill="#2F2E41"/>
<path d="M928.736 201.448C928.318 200.184 927.397 199.103 926.148 198.41C926.212 197.056 926.028 195.702 925.601 194.402C924.178 190.617 920.804 190.834 917.621 189.161C916.241 188.435 916.326 187.793 915.607 186.601C914.665 185.038 913.254 183.744 911.535 182.865C909.493 181.696 907.338 180.491 904.922 180.343C899.845 180.032 895.953 184.325 891.101 185.702C888.963 186.31 886.665 186.335 884.515 186.909C882.365 187.483 880.22 188.854 879.9 190.849C879.752 191.771 880.013 192.716 879.863 193.637C879.564 195.467 877.778 196.749 876.582 198.255C873.938 201.585 874.24 206.289 876.355 209.911C876.801 210.661 877.31 211.378 877.88 212.057C878.056 213.769 878.603 215.434 879.49 216.958C881.605 220.581 885.244 223.288 889.045 225.537C888.734 224.335 888.545 223.111 888.482 221.879C888.428 221.468 888.487 221.052 888.655 220.666C889.078 219.871 890.197 219.659 891.05 219.223C892.816 218.321 893.509 216.323 893.56 214.497C893.611 212.671 893.181 210.842 893.394 209.025C893.402 208.607 893.507 208.196 893.704 207.817C893.9 207.438 894.182 207.1 894.532 206.826C895.184 206.491 895.929 206.331 896.679 206.365C900.298 206.233 904.08 206.173 907.273 204.634C908.303 204.019 909.41 203.516 910.571 203.134C913.284 202.498 916.057 204.208 917.621 206.301C919.185 208.393 919.964 210.883 921.407 213.045C922.85 215.207 925.342 217.134 928.132 216.878C928.289 216.879 928.444 216.849 928.588 216.792C928.731 216.734 928.86 216.65 928.965 216.545C929.085 216.351 929.139 216.129 929.118 215.907L929.274 206.321C929.404 204.681 929.222 203.033 928.736 201.448Z" fill="#2F2E41"/>
<path d="M873.341 260.036C873.341 260.036 894.659 268.748 893.69 287.042C892.721 305.336 899.504 307.078 883.031 308.82C866.559 310.562 862.683 308.82 861.714 310.562C860.745 312.305 854.931 270.49 858.807 266.134C862.683 261.778 873.341 260.036 873.341 260.036Z" fill="#51686D"/>
<path d="M444.571 112.377C461.695 112.377 475.578 99.8966 475.578 84.5008C475.578 69.105 461.695 56.6243 444.571 56.6243C427.446 56.6243 413.563 69.105 413.563 84.5008C413.563 99.8966 427.446 112.377 444.571 112.377Z" fill="#2F2E41"/>
<path d="M465.403 389.836L447.962 432.522C447.962 432.522 433.427 442.976 442.148 446.461C450.869 449.945 468.31 442.976 468.31 442.976L481.876 411.615L479.938 389.836H465.403Z" fill="#2F2E41"/>
<path opacity="0.1" d="M465.403 389.836L447.962 432.522C447.962 432.522 433.427 442.976 442.148 446.461C450.869 449.945 468.31 442.976 468.31 442.976L481.876 411.615L479.938 389.836H465.403Z" fill="black"/>
<path d="M466.857 136.769L481.392 138.512C481.392 138.512 488.175 186.425 485.268 189.909C482.361 193.394 467.826 207.332 462.013 203.847C456.199 200.363 466.857 136.769 466.857 136.769Z" fill="#51686D"/>
<path d="M327.809 224.319C327.809 224.319 307.461 232.16 303.585 233.031C299.709 233.902 293.895 242.613 300.678 244.356C307.461 246.098 333.623 228.675 333.623 228.675L327.809 224.319Z" fill="#A0616A"/>
<path d="M472.187 407.259L482.845 442.976C482.845 442.976 483.814 456.043 488.659 456.914C493.504 457.786 508.039 452.559 508.039 450.816C508.039 449.074 502.225 435.136 502.225 435.136C502.225 435.136 502.225 424.682 496.411 420.326C490.597 415.971 485.359 401.379 485.359 401.379L472.187 407.259Z" fill="#2F2E41"/>
<path d="M485.752 325.372C487.709 329.475 487.467 359.242 485.326 379.052C484.289 388.678 482.806 395.952 480.907 396.805L467.021 393.687L461.527 392.45L461.382 381.613L460.558 321.887L444.086 260.036V244.356L485.752 247.84L492.36 257.17L492.535 257.423C492.535 257.423 482.845 319.274 485.752 325.372Z" fill="#2F2E41"/>
<path opacity="0.1" d="M477.031 344.537C479.105 347.333 482.564 364.077 485.326 379.052C484.289 388.678 482.806 395.952 480.907 396.805L467.021 393.687C466.808 393.286 466.595 392.868 466.372 392.45C464.599 389.105 462.932 385.411 461.382 381.613L460.558 321.887L444.086 260.036V244.356L485.752 247.84L492.36 257.17L453.776 254.809L462.496 288.784L473.155 324.501C473.155 324.501 473.155 339.31 477.031 344.537Z" fill="black"/>
<path d="M408.234 209.51C408.234 209.51 394.669 236.515 414.048 273.974C426.04 297.286 436.712 321.127 446.024 345.408C446.024 345.408 452.807 374.156 462.497 392.45C472.186 410.744 470.249 411.615 470.249 411.615L485.752 403.775C485.752 403.775 477.031 349.764 473.155 344.537C469.28 339.31 469.28 324.501 469.28 324.501L458.621 288.784L449.9 254.809L492.535 257.423C492.535 257.423 492.535 207.768 473.155 198.185L408.234 209.51Z" fill="#2F2E41"/>
<path d="M424.222 97.568C424.222 97.568 424.222 111.506 419.377 112.377C414.532 113.249 404.843 113.249 401.936 117.604C399.029 121.96 424.222 179.455 424.222 179.455L450.384 164.646L459.105 125.445C459.105 125.445 446.508 118.475 446.508 114.991V99.3103L424.222 97.568Z" fill="#A0616A"/>
<path opacity="0.1" d="M424.222 97.568C424.222 97.568 424.222 111.506 419.377 112.377C414.532 113.249 404.843 113.249 401.936 117.604C399.029 121.96 424.222 179.455 424.222 179.455L450.384 164.646L459.105 125.445C459.105 125.445 446.508 118.475 446.508 114.991V99.3103L424.222 97.568Z" fill="black"/>
<path d="M439.242 112.813C452.085 112.813 462.497 103.452 462.497 91.9056C462.497 80.3587 452.085 70.9981 439.242 70.9981C426.398 70.9981 415.986 80.3587 415.986 91.9056C415.986 103.452 426.398 112.813 439.242 112.813Z" fill="#A0616A"/>
<path d="M427.129 162.033C427.129 162.033 418.408 112.377 416.47 112.377C414.532 112.377 387.401 117.604 385.463 118.475C383.525 119.347 376.742 127.187 376.742 127.187L390.308 162.033C390.308 162.033 396.122 186.425 399.998 190.78C403.873 195.136 411.625 207.332 407.749 209.074C403.873 210.817 399.998 213.43 403.873 213.43C407.749 213.43 439.725 208.203 441.663 210.817C443.601 213.43 475.577 201.234 475.577 200.363C475.577 199.492 471.702 158.548 471.702 158.548L481.391 138.512L452.322 120.218L427.129 162.033Z" fill="#51686D"/>
<path d="M386.432 122.831L376.743 127.187C376.743 127.187 349.611 182.94 347.673 183.811C345.735 184.682 336.046 201.234 335.077 204.719C334.108 208.203 332.17 219.528 329.263 221.27C327.704 222.222 326.086 223.095 324.418 223.884C324.418 223.884 330.232 232.595 333.139 232.595C336.046 232.595 345.735 220.399 345.735 220.399C345.735 220.399 367.053 232.595 372.867 223.013C378.68 213.43 393.215 152.45 393.215 152.45L386.432 122.831Z" fill="#51686D"/>
<path d="M462.497 149.401C462.497 149.401 448.932 119.782 441.18 123.267C433.428 126.751 446.994 147.659 455.714 151.143L462.497 149.401Z" fill="#A0616A"/>
<path opacity="0.1" d="M448.932 150.272L462.527 147.509L465.404 160.726C465.404 160.726 478.001 180.762 475.094 189.474C472.187 198.185 454.745 212.123 448.932 204.283C443.118 196.443 438.273 184.247 442.149 177.278C446.025 170.308 451.838 153.757 448.932 150.272Z" fill="black"/>
<path d="M451.838 148.53L465.433 145.767L468.31 158.984C468.31 158.984 480.907 179.02 478 187.731C475.093 196.443 457.652 210.381 451.838 202.541C446.024 194.7 441.179 182.504 445.055 175.535C448.931 168.566 454.745 152.014 451.838 148.53Z" fill="#51686D"/>
<path d="M466.599 87.7078C469.21 82.6974 461.898 74.6648 450.267 69.7664C438.637 64.868 427.092 64.9587 424.481 69.9691C421.87 74.9794 429.182 83.012 440.813 87.9104C452.444 92.8088 463.989 92.7181 466.599 87.7078Z" fill="#2F2E41"/>
<path d="M462.982 73.176C470.474 73.176 476.547 67.7157 476.547 60.98C476.547 54.2443 470.474 48.784 462.982 48.784C455.49 48.784 449.416 54.2443 449.416 60.98C449.416 67.7157 455.49 73.176 462.982 73.176Z" fill="#2F2E41"/>
<path d="M450.384 56.6243C450.385 53.6163 451.622 50.7145 453.857 48.4766C456.093 46.2387 459.17 44.8226 462.496 44.5004C460.602 44.3143 458.685 44.4893 456.871 45.0138C455.057 45.5382 453.386 46.4005 451.967 47.5443C450.548 48.6881 449.413 50.0879 448.636 51.6524C447.86 53.2169 447.458 54.911 447.458 56.6243C447.458 58.3376 447.86 60.0317 448.636 61.5962C449.413 63.1606 450.548 64.5604 451.967 65.7042C453.386 66.8481 455.057 67.7103 456.871 68.2348C458.685 68.7593 460.602 68.9342 462.496 68.7482C459.17 68.4259 456.093 67.0098 453.857 64.7719C451.622 62.5341 450.385 59.6323 450.384 56.6243Z" fill="#2F2E41"/>
<path d="M401.936 241.307H62.7949V452.994H401.936V241.307Z" fill="#51686D"/>
<path d="M134.5 262.214H89.9268V302.287H134.5V262.214Z" fill="#F2F2F2"/>
<path d="M134.5 327.55H89.9268V367.622H134.5V327.55Z" fill="#6C63FF"/>
<path d="M134.5 392.885H89.9268V432.958H134.5V392.885Z" fill="#F2F2F2"/>
<path d="M368.022 274.846H155.816V278.33H368.022V274.846Z" fill="#F2F2F2"/>
<path d="M221.707 286.17H155.816V289.655H221.707V286.17Z" fill="#F2F2F2"/>
<path d="M368.022 340.181H155.816V343.666H368.022V340.181Z" fill="#F2F2F2"/>
<path d="M221.707 351.506H155.816V354.991H221.707V351.506Z" fill="#F2F2F2"/>
<path d="M368.022 405.517H155.816V409.002H368.022V405.517Z" fill="#F2F2F2"/>
<path d="M221.707 416.842H155.816V420.326H221.707V416.842Z" fill="#F2F2F2"/>
<path d="M959.096 582.736C959.096 600.469 947.372 606.66 932.906 606.66C932.571 606.66 932.236 606.656 931.904 606.65C931.234 606.637 930.568 606.608 929.913 606.567C916.858 605.737 906.717 599.227 906.717 582.736C906.717 565.672 930.971 544.138 932.798 542.541L932.8 542.538C932.87 542.476 932.906 542.445 932.906 542.445C932.906 542.445 959.096 565.005 959.096 582.736Z" fill="#6C63FF"/>
<path d="M931.951 603.947L941.53 591.916L931.927 605.269L931.903 606.65C931.233 606.637 930.568 606.608 929.912 606.567L930.944 588.827L930.936 588.689L930.953 588.665L931.052 586.988L921.425 573.601L931.081 585.731L931.105 586.086L931.884 572.683L923.642 558.85L931.985 570.331L932.797 542.541L932.8 542.445V542.538L932.665 564.452L940.87 555.764L932.631 566.34L932.414 578.341L940.077 566.823L932.383 580.107L932.262 586.78L943.382 570.747L932.219 589.107L931.951 603.947Z" fill="#3F3D56"/>
<path d="M109.306 461.647C109.306 479.38 97.5815 485.572 83.1164 485.572C82.7813 485.572 82.4463 485.567 82.1136 485.561C81.4435 485.548 80.7782 485.52 80.1226 485.478C67.0675 484.648 56.9268 478.138 56.9268 461.647C56.9268 444.583 81.1808 423.049 83.0079 421.452L83.0103 421.45C83.0802 421.387 83.1164 421.356 83.1164 421.356C83.1164 421.356 109.306 443.916 109.306 461.647Z" fill="#6C63FF"/>
<path d="M82.1622 482.858L91.7413 470.827L82.1381 484.18L82.114 485.561C81.4439 485.548 80.7786 485.52 80.1229 485.478L81.1546 467.739L81.1474 467.6L81.1643 467.576L81.2631 465.899L71.6357 452.513L81.292 464.642L81.3161 464.997L82.0947 451.594L73.8533 437.761L82.1959 449.243L83.0083 421.452L83.0107 421.356V421.45L82.8757 443.363L91.0809 434.675L82.8419 445.251L82.625 457.252L90.2878 445.734L82.5937 459.018L82.4731 465.691L93.5926 449.659L82.4297 468.018L82.1622 482.858Z" fill="#3F3D56"/>
</svg>
