<svg width="376" height="318" viewBox="0 0 376 318" fill="none" xmlns="http://www.w3.org/2000/svg">
<path d="M332.088 257.733C324.513 272.931 314.906 287.629 302.749 300.932C302.479 301.233 302.207 301.525 301.932 301.823L273.13 287.805C273.306 287.504 273.499 287.166 273.707 286.796C286.079 265.032 360.763 132.27 358.403 102.201C358.678 104.681 367.531 186.695 332.088 257.733Z" fill="#E6E6E6"/>
<path d="M308.306 303.637C307.903 303.873 307.489 304.103 307.073 304.326L285.467 293.81C285.769 293.589 286.121 293.329 286.525 293.036C293.145 288.149 312.828 273.489 332.088 257.733C352.786 240.801 372.998 222.608 376 213.924C375.39 215.916 356.446 276.446 308.306 303.637Z" fill="#E6E6E6"/>
<path d="M111.287 318C172.75 318 222.575 312.928 222.575 306.671C222.575 300.415 172.75 295.343 111.287 295.343C49.825 295.343 0 300.415 0 306.671C0 312.928 49.825 318 111.287 318Z" fill="#E6E6E6"/>
<path d="M50.3513 311.995C68.767 311.995 83.6959 296.646 83.6959 277.712C83.6959 258.779 68.767 243.43 50.3513 243.43C31.9357 243.43 17.0068 258.779 17.0068 277.712C17.0068 296.646 31.9357 311.995 50.3513 311.995Z" fill="#51686D"/>
<path d="M63.7076 263.326H36.9942C35.8138 263.327 34.6822 263.81 33.8475 264.668C33.0128 265.526 32.5433 266.69 32.542 267.903V287.521C32.5433 288.735 33.0128 289.898 33.8475 290.757C34.6822 291.615 35.8138 292.098 36.9942 292.099H63.7077C64.8881 292.098 66.0197 291.615 66.8544 290.757C67.6891 289.898 68.1586 288.735 68.1599 287.521V267.903C68.1586 266.69 67.6891 265.526 66.8544 264.668C66.0197 263.81 64.888 263.327 63.7076 263.326ZM63.7076 265.942C63.8671 265.942 64.0259 265.964 64.1802 266.005L50.354 277.345L36.6087 265.982C36.7355 265.955 36.8647 265.942 36.9942 265.942H63.7076ZM63.7076 289.483H36.9942C36.4883 289.483 36.0033 289.276 35.6456 288.908C35.2879 288.54 35.0867 288.041 35.0861 287.521V268.08L49.5539 280.04C49.7792 280.226 50.0594 280.328 50.3485 280.328C50.6376 280.329 50.9182 280.228 51.1442 280.043L65.6158 268.174V287.521C65.6152 288.041 65.414 288.54 65.0563 288.908C64.6985 289.276 64.2135 289.483 63.7076 289.483Z" fill="white"/>
<path d="M141.884 190.818L114.638 192.619L107.33 166.024L131.277 160.254L141.884 190.818Z" fill="#2F2E41"/>
<path d="M179.035 225.646L186.496 225.709C187.251 225.715 187.998 225.552 188.686 225.231C189.373 224.91 189.984 224.439 190.476 223.85C190.968 223.261 191.329 222.569 191.534 221.822C191.74 221.075 191.784 220.291 191.664 219.525C191.535 218.7 191.219 217.918 190.743 217.241C190.266 216.565 189.642 216.013 188.92 215.63C188.198 215.246 187.398 215.043 186.586 215.035C185.773 215.028 184.971 215.216 184.242 215.586L177.206 219.156L153.141 224.673L142.831 213.836L136.909 223.864L150.821 234.915L179.035 225.646Z" fill="#FFB8B8"/>
<path d="M177.637 304.899L168.847 306.637C162.842 287.177 156.337 268.749 156.338 254.497C147.84 264.22 137.303 269.782 124.896 271.529L126.248 249.978L136.39 244.416L151.914 237.05C153.273 236.405 154.739 236.032 156.234 235.951C159.14 235.794 162 236.748 164.263 238.629C166.526 240.509 168.033 243.185 168.493 246.139L177.637 304.899Z" fill="#FFB8B8"/>
<path d="M176.285 296.209C176.285 296.209 177.127 295.842 180.494 300.37C180.494 300.37 191.243 302.428 189.465 307.412C187.687 312.395 173.866 312.239 172.552 311.477C171.239 310.716 160.785 310.732 161.507 307.346C162.23 303.96 166.394 300.175 166.394 300.175C166.394 300.175 168.309 304.164 171.285 304.181C175.27 304.203 176.623 300.727 175.946 297.251C175.94 297.219 176.31 296.229 176.285 296.209Z" fill="#2F2E41"/>
<path d="M108.645 284.356C108.645 284.356 109.962 288.057 104.033 290.288C104.033 290.288 98.2165 301.609 93.5475 297.934C88.8785 294.259 93.7237 278.859 94.9736 277.649C96.2236 276.438 99.7464 264.745 103.083 266.699C106.419 268.653 109.012 274.59 109.012 274.59C109.012 274.59 98.2688 278.137 103.351 286.347C103.351 286.347 105.567 286.501 108.645 284.356Z" fill="#2F2E41"/>
<path d="M120.931 186.186C127.045 186.186 132.002 181.089 132.002 174.803C132.002 168.517 127.045 163.421 120.931 163.421C114.817 163.421 109.86 168.517 109.86 174.803C109.86 181.089 114.817 186.186 120.931 186.186Z" fill="#FFB8B8"/>
<path d="M130.473 204.963H111.203L107.146 192.797C114.179 190.59 112.536 184.322 111.203 178.198H130.473C126.738 185.859 122.096 196.701 131.15 198.707L130.473 204.963Z" fill="#FFB8B8"/>
<path d="M135.545 268.922L132.041 271.66C130.535 272.837 128.755 273.588 126.879 273.84C125.003 274.091 123.095 273.834 121.345 273.093C111.311 265.36 103.126 267.677 96.665 279.35C88.9149 270.357 88.0579 257.332 94.9746 243.895L133.347 244.764L141.123 242.331L135.545 268.922Z" fill="#2F2E41"/>
<path d="M122.766 309.195C120.567 309.891 118.2 309.769 116.08 308.85C113.96 307.932 112.222 306.276 111.171 304.172C107.722 301.049 104.812 296.578 102.289 291.141C100.478 287.153 98.9231 283.047 97.6341 278.849C95.8879 273.304 98.8078 267.246 104.242 265.587C104.404 265.538 104.568 265.491 104.733 265.448C111.988 263.532 119.439 267.835 121.919 275.101L129.13 296.232C129.566 297.511 129.747 298.868 129.662 300.221C129.576 301.574 129.226 302.896 128.631 304.106C128.037 305.317 127.211 306.391 126.204 307.266C125.196 308.14 124.026 308.796 122.766 309.195Z" fill="#FFB8B8"/>
<path opacity="0.2" d="M101.061 288.735C101.061 288.735 109.513 298.468 111.203 304.029L101.061 288.735Z" fill="black"/>
<path d="M68.2798 242.802L65.451 249.901C65.1648 250.619 65.0344 251.393 65.0689 252.168C65.1034 252.943 65.302 253.702 65.6509 254.39C65.9997 255.078 66.4905 255.68 67.0888 256.154C67.6871 256.627 68.3787 256.96 69.1152 257.131C69.908 257.314 70.7315 257.304 71.5195 257.1C72.3075 256.896 73.038 256.505 73.6523 255.959C74.2665 255.412 74.7473 254.724 75.056 253.951C75.3647 253.179 75.4926 252.342 75.4295 251.509L74.82 243.467L78.7778 218.446L92.3943 212.631L85.5388 203.252L70.391 212.427L68.2798 242.802Z" fill="#FFB8B8"/>
<path d="M135.883 243.895C126.169 260.671 110.547 257.726 93.9605 244.59C100.956 239.213 96.6652 223.734 90.5797 222.691C84.2869 221.613 83.5301 208.381 81.1133 201.835L110.527 190.712L118.472 197.143L126.417 195.231L129.674 196.419C131.794 197.192 133.633 198.615 134.943 200.494C136.253 202.374 136.972 204.622 137.002 206.934C130.328 216.848 125.386 227.425 135.883 243.895Z" fill="#51686D"/>
<path d="M139.602 230.338C139.602 230.338 138.105 222.402 133.191 224.893C128.277 227.384 127.938 220.432 127.938 220.432L131.826 197.316L147.717 214.696L139.602 230.338Z" fill="#51686D"/>
<path d="M131.272 160.154C131.272 160.154 136.883 162.317 136.961 169.997C136.958 171.289 136.779 172.574 136.43 173.815C136.053 175.223 135.734 178.282 138.153 182.386C139.734 185.05 141.16 187.807 142.425 190.644L136.081 191.216L135.126 180.404C134.663 175.162 133.452 170.019 131.532 165.14L131.492 165.038C131.492 165.038 128.539 170.207 123.014 169.997L125.061 168.044C125.061 168.044 118.116 170.66 114.348 171.164C113.917 171.222 113.511 171.399 113.171 171.677C112.832 171.954 112.573 172.322 112.421 172.74C112.27 173.158 112.233 173.61 112.313 174.048C112.393 174.486 112.588 174.894 112.877 175.226C112.899 175.251 112.921 175.277 112.944 175.302C115.224 177.826 119.755 183.687 116.832 188.045C113.909 192.403 116.233 193.71 116.233 193.71L111.979 191.111L110.05 189.818L109.992 191.441L99.7751 189.833C99.7751 189.833 97.0273 189.322 103.195 182.65C103.195 182.65 104.855 180.031 104.254 177.695C103.755 175.918 103.675 174.044 104.02 172.229C105.62 164.673 111.367 149.749 131.272 160.154Z" fill="#2F2E41"/>
<path d="M333.144 74.113H331.477V27.1691C331.477 19.9634 328.693 13.0529 323.737 7.95765C318.781 2.86245 312.06 0 305.052 0H208.316C201.308 0 194.586 2.86245 189.63 7.95765C184.675 13.0529 181.891 19.9634 181.891 27.1691V284.708C181.891 291.913 184.675 298.824 189.63 303.919C194.586 309.014 201.308 311.877 208.316 311.877H305.051C312.06 311.877 318.781 309.014 323.737 303.919C328.693 298.824 331.477 291.913 331.477 284.708V107.528H333.144L333.144 74.113Z" fill="#3F3D56"/>
<path d="M306.118 7.0679H293.49C294.071 8.53173 294.293 10.12 294.137 11.6928C293.98 13.2656 293.449 14.7745 292.591 16.0868C291.734 17.399 290.575 18.4742 289.218 19.2177C287.861 19.9611 286.347 20.3499 284.809 20.3499H229.391C227.854 20.3498 226.34 19.9609 224.983 19.2175C223.626 18.4741 222.467 17.399 221.61 16.087C220.752 14.7749 220.222 13.2661 220.065 11.6936C219.908 10.121 220.13 8.53292 220.71 7.06919H208.915C203.681 7.06919 198.661 9.20691 194.96 13.0121C191.259 16.8172 189.18 21.9782 189.18 27.3595V284.519C189.18 289.9 191.259 295.061 194.96 298.866C198.661 302.671 203.681 304.809 208.915 304.809H306.114C311.348 304.809 316.368 302.671 320.069 298.866C323.77 295.061 325.849 289.9 325.849 284.519V27.3582C325.849 21.9768 323.77 16.8159 320.069 13.0108C316.368 9.20559 311.348 7.06787 306.114 7.06787L306.118 7.0679Z" fill="white" fill-opacity="0.83"/>
<path d="M257.683 290.438C263.668 290.438 268.52 285.449 268.52 279.296C268.52 273.142 263.668 268.154 257.683 268.154C251.698 268.154 246.846 273.142 246.846 279.296C246.846 285.449 251.698 290.438 257.683 290.438Z" fill="#E6E6E6"/>
<path d="M213.719 176.256C212.695 176.256 211.861 177.234 211.861 178.436C211.861 179.638 212.695 180.617 213.719 180.617H301.308C302.332 180.617 303.166 179.638 303.166 178.436C303.166 177.234 302.332 176.256 301.308 176.256H213.719Z" fill="#E6E6E6"/>
<path d="M213.719 227.68C212.695 227.68 211.861 228.658 211.861 229.86C211.861 231.062 212.695 232.041 213.719 232.041H301.308C302.332 232.041 303.166 231.062 303.166 229.86C303.166 228.658 302.332 227.68 301.308 227.68H213.719Z" fill="#E6E6E6"/>
<path d="M213.719 189.338C212.695 189.338 211.861 190.316 211.861 191.518C211.861 192.72 212.695 193.699 213.719 193.699H251.409C252.433 193.699 253.267 192.72 253.267 191.518C253.267 190.316 252.433 189.338 251.409 189.338H213.719Z" fill="#E6E6E6"/>
<path d="M213.719 201.808C212.695 201.808 211.861 202.786 211.861 203.988C211.861 205.19 212.695 206.168 213.719 206.168H301.308C302.332 206.168 303.166 205.19 303.166 203.988C303.166 202.786 302.332 201.808 301.308 201.808H213.719Z" fill="#E6E6E6"/>
<path d="M213.719 214.89C212.695 214.89 211.861 215.868 211.861 217.07C211.861 218.272 212.695 219.25 213.719 219.25H251.409C252.433 219.25 253.267 218.272 253.267 217.07C253.267 215.868 252.433 214.89 251.409 214.89H213.719Z" fill="#E6E6E6"/>
<path d="M230.254 76.9766H284.778C285.38 76.9773 285.958 77.2236 286.384 77.6615C286.81 78.0994 287.049 78.6931 287.05 79.3123V137.695C287.049 138.314 286.81 138.908 286.384 139.345C285.958 139.783 285.38 140.03 284.778 140.03H230.254C229.652 140.03 229.075 139.783 228.649 139.345C228.223 138.908 227.983 138.314 227.982 137.695V79.3123C227.983 78.6931 228.223 78.0994 228.649 77.6615C229.075 77.2236 229.652 76.9773 230.254 76.9766Z" fill="#F9AE76"/>
<path d="M273.16 127.991C273.363 127.991 273.564 127.95 273.751 127.871C273.938 127.791 274.109 127.675 274.252 127.527C274.396 127.38 274.51 127.205 274.587 127.013C274.665 126.82 274.705 126.614 274.705 126.405C274.705 126.197 274.665 125.99 274.587 125.798C274.51 125.605 274.396 125.43 274.252 125.283C274.109 125.136 273.938 125.019 273.751 124.939C273.564 124.86 273.363 124.819 273.16 124.819H241.872C241.669 124.819 241.468 124.86 241.281 124.939C241.094 125.019 240.923 125.136 240.78 125.283C240.636 125.43 240.522 125.605 240.445 125.798C240.367 125.99 240.327 126.197 240.327 126.405C240.327 126.614 240.367 126.82 240.445 127.013C240.522 127.205 240.636 127.38 240.78 127.527C240.923 127.675 241.094 127.791 241.281 127.871C241.468 127.95 241.669 127.991 241.872 127.991H273.16Z" fill="white"/>
<path d="M273.16 118.648C273.569 118.648 273.962 118.481 274.251 118.183C274.54 117.886 274.703 117.483 274.703 117.062C274.703 116.642 274.54 116.238 274.251 115.941C273.962 115.643 273.569 115.476 273.16 115.476H241.872C241.67 115.476 241.469 115.517 241.282 115.597C241.095 115.677 240.925 115.794 240.782 115.941C240.639 116.088 240.525 116.263 240.447 116.455C240.37 116.648 240.33 116.854 240.33 117.062C240.33 117.27 240.37 117.477 240.447 117.669C240.525 117.861 240.639 118.036 240.782 118.183C240.925 118.331 241.095 118.447 241.282 118.527C241.469 118.607 241.67 118.648 241.872 118.648H273.16Z" fill="white"/>
<path d="M257.516 89.0161C259.436 89.0161 261.313 89.6015 262.91 90.6983C264.506 91.7951 265.751 93.3541 266.486 95.178C267.22 97.0019 267.413 99.0089 267.038 100.945C266.663 102.881 265.739 104.66 264.381 106.056C263.023 107.452 261.293 108.403 259.41 108.788C257.527 109.173 255.575 108.975 253.801 108.22C252.027 107.464 250.511 106.185 249.444 104.543C248.377 102.902 247.808 100.972 247.808 98.9978C247.811 96.3514 248.834 93.8143 250.654 91.943C252.474 90.0717 254.942 89.0191 257.516 89.0161Z" fill="white"/>
</svg>
