<svg width="1435" height="900" viewBox="0 0 1435 811" fill="none" xmlns="http://www.w3.org/2000/svg">
<path d="M0 0L47.8333 133.437C95.6667 309.641 329.333 674.064 425 675.466C520.667 674.064 524.833 639.153 620.5 562.969C716.167 489.59 882 510.861 1006.5 600.468C1116 654.525 1165.05 620.659 1215 523.035C1288.5 379.371 1395 353.56 1435 334.08V445.603V562.969V1236H1387.17C1339.33 1236 1243.67 1236 1148 1236C1052.33 1236 956.667 1236 861 1236C765.333 1236 669.667 1236 574 1236C478.333 1236 382.667 1236 287 1236C191.333 1236 95.6667 1236 47.8333 1236H0V0Z" fill="#51686D"/>
</svg>
